<svg xmlns="http://www.w3.org/2000/svg" width="613.333" height="613.333" version="1.0" viewBox="0 0 460 460"><path d="M406.7 39.5c-2.6.7-7.8 3.1-11.5 5.3-4 2.4-7 3.6-7.3 3-.6-1-6.9 2.8-6.9 4.1 0 .4-.9 1.2-1.9 1.8-1.6 1-1.8.9-1.4-.8.8-3-.6-2.3-7.7 4.1-3.7 3.2-7 5.7-7.3 5.4s-3.5 1.5-7 4-6.7 4.3-7 4c-.6-.6-13.1 8.2-19 13.3-6.1 5.4-5.7 4.3 2.1-7 1.8-2.7 3.2-5.1 3-5.3-.7-.6-6.8 4-6.8 5.2 0 .6-1.5 1.7-3.4 2.6-1.8.9-6.6 5.3-10.7 9.8-7.7 8.4-31.1 30-34.5 31.7-4 2.2-10.5 2.4-21.1.9-25.6-3.6-45.8-4.8-64.8-3.6-9.9.6-19.7 1.5-21.9 2-2.1.5-4.8.5-6 .1-1.2-.5-3.1-.4-4.4.2-1.7.8-2.9.8-4.2 0-.9-.7-3.5-1.5-5.6-1.9-2.2-.3-4.3-1-4.9-1.4-.5-.4-3.2-1.3-6-2-6.8-1.7-20.7-7.7-27.8-11.8-3.2-1.8-8.1-4.4-11-5.8-2.9-1.3-7.9-4.1-11.2-6.2S82 86.1 79 84.6c-3-1.6-6.6-3.5-8-4.2-4.6-2.6-15.9-8.4-16.5-8.4-1.2 0-.3 2.3 2 4.8 1.4 1.5 2.5 3 2.5 3.3 0 .9-28.6-8.8-35.8-12.2-8-3.7-10.1-3.3-4.1.9 2.4 1.7 6 4.5 7.9 6.2 3.3 2.9 3.3 3.1 1 2.6-4.5-.9-15.4-2.5-21.3-3.1-7-.6-7.7 1-1.1 2.7 2.8.8 5.3 2.2 6.4 3.8 2.1 3 8 16.9 8 18.8 0 .8 2 4.5 4.5 8.2 4.3 6.5 9.9 17.4 10 19.5 0 .5 1.2 2.3 2.8 3.8 1.5 1.6 2.5 3.3 2.2 3.7-.3.5 1 2.1 3 3.7 3.8 3 4.6 4.7 1.8 3.6-1.7-.7-1.7-.5.1 2.1 1 1.6 1.9 3.8 2 5.1.3 1.9 4.4 6.4 11.6 12.4 1.6 1.3 2 2 1 2.1-.8 0 .4 1.9 3 4.6 2.5 2.6 3.9 4.4 3.3 4-2.6-1.5-1.2 1.2 2.2 4 1.9 1.6 3.7 3.5 4 4.4.5 1.2.4 1.3-.6.2-.7-.6-1.8-1.2-2.3-1.2-.6 0 .8 1.8 2.9 4s3.3 4 2.7 4c-.7 0 .5 2.7 2.8 5.9 9.4 13.9 10.9 19.9 7 27.6-1.1 2.2-2 4.7-2 5.6 0 .8-1.7 3.3-3.7 5.5-6.5 6.7-6.7 7.2-3.6 6.6l2.8-.5-3.3 3.1c-1.8 1.7-3.7 3.2-4.2 3.4-.4.2-2.4 2.3-4.4 4.8-2.5 3.1-3.1 4.7-2.3 5.2 1.3.8-.6 2.6-5.5 5.3-1.6.9-2.8 2-2.8 2.5 0 .6-.6 1-1.2 1-.7 0-2.6 1.1-4.3 2.4l-2.9 2.3 2.4.8c3.5 1.1 10.4 6.1 20.3 14.7l4.1 3.6-4.9-.5-5-.4 2.5 2c1.4 1.1 5.7 4.2 9.5 6.8 3.9 2.6 8.1 5.6 9.5 6.6l2.5 1.9-3.5-.7c-1.9-.3-4.4-.9-5.5-1.1-1.1-.3-.4.5 1.6 1.8 6.9 4.5 15.8 12.1 15.3 13-.3.5-1.3.7-2.1.4s-1.3-.1-1.1.4c.2.6 4.3 3.5 9.2 6.3 10.1 5.9 11.9 8 5.8 6.6-2.2-.5-5.2-1.3-6.7-1.9-5.4-2-3.5-.2 3.8 3.8 4.1 2.3 7.7 4.8 8 5.6s2.3 2.5 4.4 3.6c7.6 4.2 15 9.2 22.7 15.3 7.9 6.2 14.8 12.8 14.1 13.5-.2.2-6.6-1.9-14.2-4.6-20.8-7.5-35.8-12.1-43.8-13.5-1.6-.3-3.8-.9-4.7-1.2-1-.4-1.8-.3-1.8.2 0 1 5 3.7 10.5 5.6 3.8 1.3 30.4 12.3 37 15.2 1.7.7 4.3 1.7 5.9 2.1s4.1 1.3 5.5 2c1.4.8 3.1 1.4 3.7 1.4.7 0 3.1.9 5.5 2.1 2.5 1.1 3.3 1.8 1.9 1.5-2.5-.5-12.1-2.2-28.5-5-8.5-1.5-16.4-2.4-38.5-4.6-15.9-1.6-40.1-.7-35 1.3.8.3 13.4 2.2 28 4.2s30.8 4.5 36 5.5 17.6 3.3 27.5 5 18.4 3.5 18.9 4c.7.7-13.5 1-39 1-21.9.1-44.6.5-50.4 1.1-11.8 1.2-17 1.5-28.2 1.9-7.8.2-11.2 2-4 2 2 0 16.3.7 31.7 1.5s40.8 1.5 56.5 1.5c17.8.1 27.7.5 26.5 1-1.1.5-6.3 2.6-11.5 4.6-9.8 3.8-11.7 4.5-21.2 8.7-7.1 3.1-17.3 10.1-18.2 12.3q-.6 1.65.6 1.2c.7-.3 3.1-1.1 5.3-1.8 10.7-3.4 19.4-6.5 22.7-8.2 2-1 7-2.9 11-4.2s9-3.1 11.1-4c5.4-2.3 3.8-.4-2.7 3.3-11.9 6.9-25.7 18.9-22.8 19.9 1.3.4 10.9-4 18.4-8.4 3.5-2 8.3-4.8 10.8-6.2 2.5-1.3 5.2-3 6-3.7.8-.8 3.4-2.1 5.8-3.1l4.3-1.7 2.9 3.4c1.6 1.9 2.9 3.7 3 4 0 .4 2.8 1.9 6.3 3.4 3.4 1.6 8 4.3 10.3 6.2 4.5 3.6 5.9 4.1 5 1.8-.8-2.3.1-1.9 4.8 2 4.6 3.8 6.7 4.6 4.5 1.8-.8-1 .4-.4 2.6 1.3 5.2 4 7 5 6.1 3.6-1-1.6.7-1.5 2.3.1 1.1 1 1.2.7.7-1.3-.6-2.2-.6-2.3.5-.6 1.1 1.8 1.2 1.8 2.5-.5l1.3-2.4.1 2.2c0 1.3.5 2.3 1 2.3.6 0 1-.8 1-1.8s.6-2.6 1.3-3.6c1.3-1.8 1.4-1.8 2-.2s.9 1.6 2.2.2c.8-.8 1.5-2.1 1.5-2.9s1.2-2.2 2.6-3.2l2.7-1.7-.7 2.8-.7 2.8 2.3-1.9c1.3-1.1 2.6-2.4 3-3 .4-.5 3.4-3.9 6.8-7.6l6.1-6.7 6.2 3.9c3.4 2.2 7.3 4.5 8.7 5.2 1.4.6 4.5 2.7 7 4.5 8.3 6.2 21.3 14.2 22.9 14.2 1.7-.1 0-1.8-9-9.1-2.4-2-7.3-6.1-10.8-9-3.5-3-8.3-6.9-10.8-8.8-2.4-1.8-4.2-3.5-4.1-3.7.4-.4 19.1 5.3 23.3 7.1 1.7.7 4.8 2 6.9 2.9 2.1 1 6.9 1.9 10.5 2.2 7.3.6 7.6 1.1-2.8-4.6-2-1.1-6.5-3.1-10.1-4.4-3.6-1.4-5.9-2.5-5.3-2.6.7 0 3 .7 5 1.5 2.1.8 6.7 2.1 10.3 2.9s10.8 2.5 16 3.9c9.7 2.6 29.9 6.2 30.6 5.5.5-.6-20-8.5-28.1-10.8-3.8-1.1-9.9-2.9-13.5-3.9-9.5-2.7-17.1-4.8-20.2-5.5-3.2-.7-3.9-2.7-.8-2.1 1.1.2 2.4.6 2.9.9.8.5 28.5 4.3 51.6 7 14.8 1.8 35.8 3.6 40.5 3.6 15.3-.2-40.1-11.4-86.5-17.5-6.6-.9-14-1.9-16.5-2.2l-4.4-.6 4.2-1.2c9.1-2.7 22.7-4.6 39.3-5.4 22.9-1.1 37.7-.4 53.7 2.5 4.8.9 3.9-1-1.5-3.4-15.2-6.4-62.9-7.8-87.3-2.6l-2.5.6 2.5-2.7c1.3-1.4 5.4-4 9-5.7 6.9-3.4 29-21 29-23.2 0-.7 1.9-2.6 4.3-4.2 3.2-2.2 3.8-2.9 2.4-3.2-1.3-.3.8-2.3 7.4-7.3 5.2-3.9 8.5-6.9 7.5-6.9-2.6 0-.6-2.2 5.5-6.2 5.6-3.6 5.9-5.2.4-1.9-6.3 3.7-5.9 2.3 1.1-4.3l6.9-6.4-4.4.9c-2.4.5-4.8 1.2-5.3 1.5-.4.3-.8 0-.8-.6s1.4-1.9 3.1-2.8c3-1.6 11.2-6.5 26.6-15.9 3.9-2.4 9.2-5.1 11.7-5.9 2.5-.9 4.6-2 4.6-2.5 0-.6 1.5-1.6 3.3-2.4 2.3-1 2.7-1.4 1.2-1.5-1.8 0-1.8-.2.5-2l2.5-2h-2.8c-1.6 0-2.6-.4-2.2-1 .3-.5 2.1-1 3.8-1 5 0 6.6-1.6 2.6-2.6l-3.4-.8 4-1.2c2.2-.7 3.3-1.3 2.5-1.3-.8-.1-3.5-1.1-6-2.3-4.3-2-4.4-2.1-2-2.8 2.4-.6 2.4-.7-1.7-2.8-2.4-1.3-4.3-2.8-4.3-3.6 0-.7-1.1-1.8-2.5-2.4-1.4-.7-2.8-1.9-3.1-2.7-.4-.8-1.1-1.5-1.8-1.5-1.8-.1-8.9-7.3-12.5-12.6-1.7-2.7-3.9-7.3-4.7-10.4-.9-3-2-5.9-2.5-6.4-1.4-1.6-1-22.4.5-30.1.8-3.9 1.7-8.2 2-9.8.3-1.5 2-6 3.9-10 1.9-3.9 3.8-8.3 4.2-9.7s2.8-7 5.5-12.5c5.7-11.8 7.4-16.6 9.4-26 1.6-7.3 5-32.8 6.1-45.3.8-9 2.6-16.2 7-27.2 4.8-12.4 5-13 2.8-12.9-1 0-4 .7-6.6 1.4M39 94.5c0 .8-.7 1.5-1.5 1.5-1.6 0-2-1.2-.8-2.3 1.1-1.2 2.3-.8 2.3.8M322.5 112c.3.5.1 1-.4 1-.6 0-1.1-.5-1.1-1 0-.6.2-1 .4-1 .3 0 .8.4 1.1 1m-4.6 10.5c.3 1.7.2 1.7-1.3.3-1.9-2-2.1-3.1-.3-2.6.6.3 1.4 1.3 1.6 2.3M310 128c0 .5-.4 1-.9 1-.6 0-1.3-.5-1.6-1-.3-.6.1-1 .9-1 .9 0 1.6.4 1.6 1m-22.2 4.2c-.6 1.8-2.8 2.1-2.8.4 0-.9.7-1.6 1.6-1.6s1.4.5 1.2 1.2m-20.8.8c0 .5-.4 1-1 1-.5 0-1-.5-1-1 0-.6.5-1 1-1 .6 0 1 .4 1 1m31 1c0 .5-.4 1-1 1-.5 0-1-.5-1-1 0-.6.5-1 1-1 .6 0 1 .4 1 1m-12.5 3c.3.5-.1 1-.9 1-.9 0-1.6-.5-1.6-1 0-.6.4-1 .9-1 .6 0 1.3.4 1.6 1m7.5 0c0 .5-.4 1-1 1-.5 0-1-.5-1-1 0-.6.5-1 1-1 .6 0 1 .4 1 1m6 .4c0 .3-.4.8-1 1.1-.5.3-1 .1-1-.4 0-.6.5-1.1 1-1.1.6 0 1 .2 1 .4m-7.6 5.7c-.7 1.1-3.4 1.2-3.4.1 0-1.4 1.1-2.1 2.6-1.5.8.3 1.1.9.8 1.4m10.6 7.4c0 .8-.4 1.5-.9 1.5-1.3 0-2.2-1.6-1.4-2.4 1.1-1.1 2.3-.6 2.3.9m51 18c0 .8-.7 1.5-1.5 1.5s-1.5-.7-1.5-1.5.7-1.5 1.5-1.5 1.5.7 1.5 1.5m-2.8 5c0 .5-.5 1.1-1.1 1.3s-1.1-.4-1.1-1.3.5-1.5 1.1-1.3 1.1.8 1.1 1.3m-225.8 34.6c-.3.5-1 .7-1.5.3-.5-.3-.7-1-.3-1.5.3-.5 1-.7 1.5-.3.5.3.7 1 .3 1.5m.6 7.9c0 .5-.4 1-1 1-.5 0-1-.5-1-1 0-.6.5-1 1-1 .6 0 1 .4 1 1m2.5 5c.3.5.1 1-.4 1-.6 0-1.1-.5-1.1-1 0-.6.2-1 .4-1 .3 0 .8.4 1.1 1m189.8 35.9c-6.5 4.7-8.3 7.7-8.3 13.5 0 13.3-7.6 25.2-19.4 30.6-5.6 2.5-6.9 2.5-18.6 0-5.1-1.1-11.8-2-14.7-2s-5.3-.3-5.3-.8c0-1.1 12.9-14.2 18.4-18.7 5.6-4.6 6.5-4.1 11.2 6l3.2 6.9 1-3.9c3.3-12.7 4-16.3 3.5-18.7-.5-2.5 0-2.9 9-7.3 8-3.9 19.7-8.1 23.1-8.4.5-.1-.9 1.2-3.1 2.8m-187.2 12.6c3 .9 7.8 2.7 10.7 4.2l5.2 2.5v5.5c0 7 1.8 14.3 3.6 14.3.8 0 1.4-.4 1.4-.9 0-1.4 10.9-10.1 12.7-10.1.8 0 4.5 2.9 8.1 6.3l6.5 6.4-5.9 1.6c-3.2.9-9 2.7-12.7 4-6.3 2.3-7.3 2.4-12.3 1.2-8.7-2-13.3-6.5-17.3-17.1-2.8-7.4-6.1-15.2-7.9-18.7-.6-1.1 1.9-.9 7.9.8m191.3 28c-.4.8-1 1.5-1.5 1.5s-.9-.7-.9-1.5.7-1.5 1.5-1.5c.9 0 1.2.6.9 1.5M317 311c0 .5-.4 1-1 1-.5 0-1-.5-1-1 0-.6.5-1 1-1 .6 0 1 .4 1 1m-176.2 4.8c.2.7-.3 1.2-1.2 1.2s-1.6-.7-1.6-1.6c0-1.7 2.2-1.4 2.8.4M303 315c0 .5-.7 1-1.5 1s-1.5-.5-1.5-1c0-.6.7-1 1.5-1s1.5.4 1.5 1m3 2.4c0 1.1-1.9 1.5-2.5.6-.3-.5.1-1 .9-1 .9 0 1.6.2 1.6.4M138 319c0 .5-.4 1-1 1-.5 0-1-.5-1-1 0-.6.5-1 1-1 .6 0 1 .4 1 1m6.4.5c-.6 1.6-2.4 2.1-2.4.7 0-1.1 1.1-2.2 2.1-2.2.5 0 .6.7.3 1.5m8.1 2.5c.3.5.1 1-.4 1-.6 0-1.1-.5-1.1-1 0-.6.2-1 .4-1 .3 0 .8.4 1.1 1m145.5 0c0 .5-.4 1-1 1-.5 0-1-.5-1-1 0-.6.5-1 1-1 .6 0 1 .4 1 1m-145 5c0 .5-.5 1-1.1 1-.5 0-.7-.5-.4-1 .3-.6.8-1 1.1-1 .2 0 .4.4.4 1m44 7c0 .5-.4 1-1 1-.5 0-1-.5-1-1 0-.6.5-1 1-1 .6 0 1 .4 1 1m.4 17.5c.3.9 0 1.5-.9 1.5-1.6 0-2.7-1.4-1.8-2.4 1-1 2.1-.7 2.7.9m3.1 4.9c1.6.9 2.2 1.7 1.5 2.1-.8.5-.8 1.1.1 2.1 1.8 2.2.4 2.7-2.5.8-1.9-1.1-2.5-2.2-2.1-3.5.5-1.4.2-1.7-.8-1.3-.8.3-1.8.1-2.2-.5-.9-1.6 2.8-1.4 6 .3m-6.5 9c0 .3-.4.8-1 1.1-.5.3-1 .1-1-.4 0-.6.5-1.1 1-1.1.6 0 1 .2 1 .4m48.5 7.6c1.1 1.8-5.8 7.4-10.8 8.7-5.3 1.5-10.9 6-12.7 10.3l-1.3 3.1-2.4-4c-1.3-2.2-3.2-4.2-4.1-4.5-1-.4-3.8-1.9-6.3-3.5-3.2-2-4.8-3.8-5.6-6.5-1-3.3-1-3.6.5-3.2.9.3 3.4.8 5.5 1.2 3.7.6 8.4 4.1 10.4 7.9 1.1 1.8 1.4 1.7 5.2-2.7 4.2-4.7 6.3-5.6 17.1-7.2 1.4-.2 2.8-.4 3.2-.5.4 0 1 .4 1.3.9"/></svg>